<svg xmlns="http://www.w3.org/2000/svg" xmlns:xlink="http://www.w3.org/1999/xlink" version="1.1" x="0px" y="0px" viewBox="0 0 100 125" style="enable-background:new 0 0 100 100;" xml:space="preserve"><g><path d="M60.05,50.16c-0.54-0.21-1.1-0.4-1.66-0.56c0.19-0.1,0.38-0.23,0.58-0.35c4.97-3.07,8.22-8.56,8.22-14.79   c0-9.65-7.84-17.49-17.49-17.49c-9.64,0-17.49,7.84-17.49,17.49c0,6.59,3.59,12.28,8.96,15.26C28.86,53.45,20.1,64.76,20.1,78.28   c0,0.98,0.78,1.74,1.74,1.74h56.32c0.96,0,1.74-0.77,1.74-1.74C79.9,65.39,71.61,54.3,60.05,50.16z M35.69,34.46   c0-7.74,6.29-14.01,14.01-14.01c7.74,0,14.01,6.27,14.01,14.01c0,7.53-5.92,13.66-13.47,13.94c-0.17,0.02-0.33,0.03-0.47,0.09   c-0.14-0.03-0.28-0.05-0.42-0.07C41.71,48.22,35.69,42.09,35.69,34.46z M41.48,53.29l4.37,8.15l-4.32,15.09H23.64   C24.33,65.65,31.51,56.62,41.48,53.29z M45.16,76.54l4.23-14.81c0.12-0.44,0.09-0.91-0.14-1.31l-4.3-8.05   c1.43-0.28,2.89-0.44,4.41-0.47c0.17,0,0.33-0.03,0.49-0.07c0.14,0.03,0.28,0.05,0.44,0.05c1.85,0.02,3.64,0.23,5.38,0.61   l-4.08,7.61c-0.23,0.4-0.28,0.87-0.14,1.31l4.34,15.12H45.16V76.54z M59.39,76.54l-4.41-15.4l4.09-7.63   c9.58,3.52,16.59,12.46,17.29,23.04H59.39V76.54z"/></g><text x="0" y="115" fill="#000000" font-size="5px" font-weight="bold" font-family="'Helvetica Neue', Helvetica, Arial-Unicode, Arial, Sans-serif">Created by Megan Chown</text><text x="0" y="120" fill="#000000" font-size="5px" font-weight="bold" font-family="'Helvetica Neue', Helvetica, Arial-Unicode, Arial, Sans-serif">from the Noun Project</text></svg>